# xmcd
#
# Track frame offsets:
#	150
#	10937
#	23070
#	34941
#	43862
#	57334
#	69620
#	81761
#	92162
#	104380
#	114440
#	126626
#	137564
#	149819
#	161641
#	187573
#	213914
#	229607
#
# Disc length: 3404 seconds
#
# Revision: 1
# Processed by: cddbd v1.5.2PL0 Copyright (c) Steve Scherf et al.
# Submitted via: audiograbber 1.83.01
#
DISCID=fc0d4a12
DTITLE=Simply Rhythm and Blues - CD4
DYEAR=2014
DGENRE=Blues
TTITLE0=Fats Domino - Blueberry Hill
TTITLE1=Big Joe Turner (Blues Singer) - Honey hush
TTITLE2=The Yardbirds feat. Jeff Beck - I'm a man
TTITLE3=Gene Chandler - Walk on with the duke
TTITLE4=Amos Milburn - Down the road apiece
TTITLE5=Memphis Slim - Slim's boogie
TTITLE6=Earl Bostic (1913-1965) - Moonglow
TTITLE7=Jesse Hill - Whip it on me
TTITLE8=Canned Heat - Got my mojo working (Demo)
TTITLE9=Al Tousan and His Piano - Naomi
TTITLE10=Eddie Boyd - Five long years
TTITLE11=Earl King - Those lonely, lonely nights
TTITLE12=Clarence "Gatemouth" Brown - Mary is fine
TTITLE13=Benny Spellman - I feel good
TTITLE14=Roy Ruchanan - Green onions (Live)
TTITLE15=John's Bluesbreakers Mayall - Ridin' on the L and N (Live)
TTITLE16=The Spencer Davis R and B Quartet - Dimples (Demo)
TTITLE17=Mike Bloomfield - Uncle Bob's barrelhouse blues
EXTD=
EXTT0=
EXTT1=
EXTT2=
EXTT3=
EXTT4=
EXTT5=
EXTT6=
EXTT7=
EXTT8=
EXTT9=
EXTT10=
EXTT11=
EXTT12=
EXTT13=
EXTT14=
EXTT15=
EXTT16=
EXTT17=
PLAYORDER=
